<svg width="6465" height="6465" viewBox="0 0 6465 6465" fill="none" xmlns="http://www.w3.org/2000/svg">
<g clip-path="url(#clip0_17_9)">
<path d="M2465.81 361.611C2444.9 272.519 2355.56 216.81 2267.73 242.495C1752.84 393.068 1285.34 676.192 912.709 1064.78C540.08 1453.37 276.801 1932.33 147.943 2453.08C125.962 2541.91 185.367 2628.84 275.257 2646V2646C365.147 2663.16 451.43 2604.03 473.99 2515.34C590.462 2057.48 823.614 1636.5 1151.9 1294.15C1480.19 951.8 1891.02 701.207 2343.6 565.646C2431.27 539.387 2486.73 450.702 2465.81 361.611V361.611Z" fill="#7B91F8"/>
<path d="M2380.29 2926.22L2382.46 2929L2385.11 2931.32L3128.61 3583.19L3628.74 4260.48L3635.08 4269.07L3645.02 4272.96L4414.89 4574.19L4483.13 5270.29L3781.5 5791.78L3000.69 6091.45C3000.27 6091 2999.81 6090.48 2999.3 6089.87C2993.3 6082.74 2986.08 6069.77 2978.16 6049.8C2962.46 6010.22 2948.6 5955.37 2933.81 5896.6C2919.44 5839.47 2904.19 5778.59 2885.95 5732.11C2876.88 5708.98 2866.07 5686.72 2852.54 5669.65C2839.18 5652.8 2818.58 5635.5 2790 5635.5H2788.01L2786.04 5635.71C2192.02 5699.6 1838.73 5670.49 1619.26 5516.72C1405.72 5367.11 1308.75 5091.78 1253.5 4627.38C1321.25 4606.21 1404.92 4552.29 1444.67 4452.05L1445.72 4449.34L1451.29 4434.88L1451.71 4434.68C1450.49 4432.2 1449.28 4429.73 1448.08 4427.27L1444.49 4419.9L1441.1 4412.88C1299.24 4118.26 1265.93 3922.45 1265.5 3564.96L1625.92 2642.74L1934.24 2352.79L2380.29 2926.22Z" fill="#FFF8E9" stroke="#7B91F8" stroke-width="74"/>
<path d="M2174.7 1137.52C3490.45 453.006 5075.68 1359.09 5370.67 1872.52C5703.01 2326.51 5830.67 2624.85 5898.68 3276.02C5932.18 3942.02 5818.7 4526.73 5444.32 5101.84C4991 6148.37 3094.18 6234.84 2680 6191.5C3548.36 5917.44 4107.86 5490.22 4210.92 4749.74C3064.32 4175.16 2524.7 3672.4 1895.21 2429.5C1304.77 3412.82 1088.44 3496.72 994.715 4729L994.715 4803.02C605.001 2700.24 1344.2 1537.02 2174.7 1137.52Z" fill="#9DAEFF"/>
<path d="M5370.67 1872.52C5075.68 1359.09 3490.45 453.006 2174.7 1137.52C1344.2 1537.02 605.001 2700.24 994.715 4803.02L994.715 4729C1088.44 3496.72 1304.77 3412.82 1895.21 2429.5C2545.34 3713.16 3099.61 4207.34 4325.69 4806.52C3725.6 4239.69 3731.17 3832.52 3150.24 3202.86L4773.48 4903.02C4891.53 4209.4 4442 4007 4009.5 3397.5C4586.82 5028.85 3978.98 5781.53 2680 6191.5C3094.18 6234.84 4991 6148.37 5444.32 5101.84C5818.7 4526.73 5932.17 3942.02 5898.68 3276.02C5830.67 2624.85 5703.01 2326.51 5370.67 1872.52Z" stroke="#7B91F8" stroke-width="74"/>
<ellipse cx="175.027" cy="338.945" rx="175.027" ry="338.945" transform="matrix(0.926954 -0.375175 0.144595 0.989491 1782 3842.33)" fill="#7B91F8"/>
<path d="M1750.44 3955.11C1727.98 3947.15 1712.51 3921.37 1720.03 3899.53C1728.53 3874.83 1740.92 3852.05 1756.97 3831.77C1781.58 3800.66 1814.3 3776.06 1853.25 3759.37C1892.2 3742.68 1936.62 3734.24 1983.98 3734.52C2031.33 3734.79 2080.69 3743.79 2129.24 3760.99C2177.79 3778.2 2224.57 3803.27 2266.93 3834.77C2309.28 3866.28 2346.36 3903.61 2376.07 3944.62C2405.78 3985.64 2427.52 4029.54 2440.06 4073.82C2448.23 4102.67 2452.39 4131.32 2452.49 4159.07C2452.57 4183.61 2430.94 4196.24 2408.48 4188.28V4188.28C2386.02 4180.32 2371.33 4154.73 2370.17 4130.04C2369.3 4111.48 2366.14 4092.48 2360.72 4073.35C2350.94 4038.82 2333.98 4004.57 2310.81 3972.58C2287.64 3940.59 2258.72 3911.48 2225.68 3886.9C2192.65 3862.33 2156.16 3842.77 2118.29 3829.35C2080.42 3815.94 2041.92 3808.92 2004.99 3808.7C1968.05 3808.48 1933.4 3815.07 1903.02 3828.09C1872.64 3841.1 1847.12 3860.29 1827.92 3884.56C1817.29 3898 1808.71 3912.84 1802.3 3928.82C1793.78 3950.08 1772.9 3963.07 1750.44 3955.11V3955.11Z" fill="#7B91F8"/>
<ellipse cx="4215" cy="4207" rx="821" ry="889" fill="#8980D4"/>
<path d="M4678.83 4108.25C4754.88 4152.12 4754.88 4261.88 4678.83 4305.75L4067.72 4658.3C3991.72 4702.14 3896.75 4647.29 3896.75 4559.55L3896.75 3854.45C3896.75 3766.71 3991.72 3711.86 4067.72 3755.7L4678.83 4108.25Z" fill="#F2E4FF"/>
<path d="M2391.4 3510.03C2392.91 3485.14 2356.98 3459 2291.5 3437.35C2226.03 3415.71 2136.38 3400.33 2042.27 3394.6C1948.15 3388.87 1857.3 3393.26 1789.68 3406.81C1722.06 3420.35 1683.23 3441.94 1681.71 3466.83L2036.55 3488.43L2391.4 3510.03Z" fill="#7B91F8"/>
<path d="M3274 856.5C3318.5 846.5 3527.32 827.91 3622.5 877.5C3851.71 1276.62 4569.96 3295.72 4497.01 3746L4004.51 3578.5C4117.79 3106.6 3408.92 1347.75 3274 856.5Z" fill="#8980D4"/>
<path d="M1660.86 5163.76C1672.38 5165.43 1680.59 5176.56 1674.2 5186.29C1672.39 5189.04 1670.29 5191.68 1667.9 5194.19C1660.27 5202.21 1649.94 5208.65 1637.74 5213C1625.54 5217.35 1611.8 5219.48 1597.61 5219.23C1583.43 5218.98 1569.18 5216.36 1556.01 5211.57C1542.85 5206.78 1531.11 5199.95 1521.75 5191.63C1512.39 5183.31 1505.65 5173.73 1502.08 5163.64C1498.5 5153.55 1498.19 5143.24 1501.16 5133.52C1502.92 5127.74 1505.82 5122.26 1509.75 5117.24C1514.7 5110.91 1523.77 5110.59 1530.53 5114.93L1537.35 5119.32C1544.55 5123.95 1544.67 5134.52 1542.16 5142.71V5142.71C1540.55 5147.98 1540.72 5153.57 1542.66 5159.03C1544.6 5164.5 1548.25 5169.69 1553.32 5174.2C1558.4 5178.71 1564.75 5182.41 1571.89 5185C1579.02 5187.6 1586.74 5189.02 1594.43 5189.16C1602.12 5189.29 1609.56 5188.14 1616.17 5185.78C1622.79 5183.42 1628.38 5179.93 1632.52 5175.59V5175.59C1638.95 5168.82 1647.49 5161.82 1656.73 5163.16L1660.86 5163.76Z" fill="#7B91F8"/>
<path d="M1659.02 5163.49C1647.51 5161.82 1636.47 5170.17 1639.84 5181.31C1640.79 5184.46 1642.06 5187.59 1643.63 5190.67C1648.67 5200.53 1656.75 5209.64 1667.21 5217.27C1677.68 5224.9 1690.24 5230.85 1703.92 5234.64C1717.59 5238.43 1731.99 5239.96 1745.98 5239.1C1759.97 5238.25 1773.15 5235.03 1784.49 5229.71C1795.83 5224.39 1805.01 5217.12 1811.31 5208.46C1817.6 5199.8 1820.83 5190 1820.74 5179.84C1820.69 5173.8 1819.46 5167.72 1817.12 5161.79C1814.17 5154.32 1805.57 5151.44 1797.85 5153.68L1790.07 5155.95C1781.85 5158.34 1778.74 5168.45 1778.81 5177.01V5177.01C1778.86 5182.52 1777.11 5187.83 1773.7 5192.52C1770.29 5197.21 1765.31 5201.15 1759.17 5204.04C1753.03 5206.92 1745.88 5208.66 1738.3 5209.13C1730.72 5209.59 1722.92 5208.76 1715.51 5206.71C1708.1 5204.65 1701.29 5201.43 1695.62 5197.29C1689.95 5193.16 1685.57 5188.22 1682.84 5182.88V5182.88C1678.59 5174.57 1672.39 5165.43 1663.15 5164.09L1659.02 5163.49Z" fill="#7B91F8"/>
</g>
<defs>
<clipPath id="clip0_17_9">
<rect width="6465" height="6465" fill="white"/>
</clipPath>
</defs>
</svg>
